<svg id="Layer_5" data-name="Layer 5" xmlns="http://www.w3.org/2000/svg" viewBox="0 0 187.89 147.98"><defs><style>.cls-1{fill:#2b2b2b;}.cls-2{fill:#00a6d1;}.cls-3{fill:#fff;}</style></defs><title>logo</title><path class="cls-1" d="M517.86,55.27H504.62l-2.78-.05a2.39,2.39,0,0,0-2.67,2.49l0,2.15,10,26.39s1,6.73,7.18,6.86l19.42-.38s5.17-.09,4.8,3.53l-.17,38.48,4.27.08.17-38.48s.75-8.47-9-8l-14.94,0s-6.11.39-7.47-2.05l-10-26.39c.24-.69,1.14-.39,1.14-.39h13.24" transform="translate(-471.53 -43.85)"/><rect class="cls-1" x="594.27" y="52.05" width="5.47" height="11.6" rx="0.56" ry="0.56" transform="translate(-472.24 -35.98) rotate(-0.75)"/><path class="cls-2" d="M516.45,59.55l-.05,5.84a5.71,5.71,0,0,0,5.66,5.73l68.52.18a5.71,5.71,0,0,0,5.73-5.66l.07-15.88A5.71,5.71,0,0,0,590.71,44l-68.52-.18a5.71,5.71,0,0,0-5.73,5.66v5.76" transform="translate(-471.53 -43.85)"/><rect class="cls-3" x="520.34" y="47.46" width="72.79" height="10.78" rx="1" ry="1" transform="matrix(1, 0.01, -0.01, 1, -470.99, -49.24)"/><rect class="cls-3" x="520.25" y="49.83" width="1.88" height="16.51" rx="0.27" ry="0.27" transform="translate(-468.64 -65.65) rotate(2.4)"/><rect class="cls-3" x="591.29" y="51.16" width="1.88" height="16.51" rx="0.27" ry="0.27" transform="translate(713.67 67.16) rotate(179.25)"/><polygon class="cls-2" points="87.25 66.62 79.54 54.04 79.54 32.2 87.25 32.2 87.25 66.62"/><rect class="cls-2" x="106.34" y="32.2" width="7.71" height="22.36"/><polygon class="cls-2" points="100.65 88.9 92.94 75.27 92.94 32.2 100.65 32.2 100.65 88.9"/><path class="cls-1" d="M527.87,135.36c0,16.33-7,28.46-19.86,31.89a57.55,57.55,0,0,1-14.08,1.37h-22.4V109.25c0-4.6,2.25-7,6.85-7.14h19.17C518.68,102.11,527.87,114.14,527.87,135.36Zm-30.32-21.62H484.93v42.84h10.86c13.5,0,18.19-7.24,18.19-21.22C514,122.06,509.87,113.75,497.55,113.75Z" transform="translate(-471.53 -43.85)"/><path class="cls-1" d="M541.17,102.11h7.34l27.09,45.68V102.11H589v66.51H574.82l-27.09-45.68v45.68h-13.4V109.25A7.06,7.06,0,0,1,541.17,102.11Z" transform="translate(-471.53 -43.85)"/><path class="cls-1" d="M635.55,102.11l23.87,66.51H645l-4.4-13.6H614.91l-4.4,13.6H595.94l22.2-62.11q1.47-4.4,6.46-4.4Zm-17,41.67h18.29l-9.19-28.27Z" transform="translate(-471.53 -43.85)"/><path class="cls-1" d="M483.72,190.84a4.65,4.65,0,0,1-1.89.73,13.68,13.68,0,0,1-2.43.21,8.56,8.56,0,0,1-2.93-.49,6.45,6.45,0,0,1-2.38-1.5,7.14,7.14,0,0,1-1.61-2.58,10.52,10.52,0,0,1-.6-3.73,9.9,9.9,0,0,1,.66-3.82,7.26,7.26,0,0,1,1.74-2.57,6.77,6.77,0,0,1,2.42-1.46,8.38,8.38,0,0,1,2.73-.46,16.13,16.13,0,0,1,2.43.15,8.31,8.31,0,0,1,1.61.4l-.5,1.7a8.35,8.35,0,0,0-3.4-.55,6.11,6.11,0,0,0-2,.34,4.65,4.65,0,0,0-1.78,1.13,5.6,5.6,0,0,0-1.25,2,8.91,8.91,0,0,0-.47,3.1,8.5,8.5,0,0,0,.45,2.89,5.84,5.84,0,0,0,1.23,2.07,5,5,0,0,0,1.84,1.24,6.24,6.24,0,0,0,2.3.41,8.17,8.17,0,0,0,2-.21,5.68,5.68,0,0,0,1.4-.53Z" transform="translate(-471.53 -43.85)"/><path class="cls-1" d="M495.77,175.44h2v10.72a6.9,6.9,0,0,1-.41,2.5,4.41,4.41,0,0,1-1.17,1.73,4.75,4.75,0,0,1-1.83,1,8.16,8.16,0,0,1-2.36.32,7.18,7.18,0,0,1-4.64-1.29,4.76,4.76,0,0,1-1.57-3.9V175.44h2.06v10.19a7,7,0,0,0,.26,2.05,3.19,3.19,0,0,0,.78,1.35,3,3,0,0,0,1.3.75A6.5,6.5,0,0,0,492,190a3.6,3.6,0,0,0,2.88-1,5.18,5.18,0,0,0,.87-3.36Z" transform="translate(-471.53 -43.85)"/><path class="cls-1" d="M508.83,187.42a2.11,2.11,0,0,0-.62-1.57,6.19,6.19,0,0,0-1.55-1.08,20.88,20.88,0,0,0-2-.88,11.32,11.32,0,0,1-2-1,5.5,5.5,0,0,1-1.55-1.45,3.65,3.65,0,0,1-.62-2.19,3.58,3.58,0,0,1,1.42-3,6.43,6.43,0,0,1,4-1.1,16.88,16.88,0,0,1,2.76.21,7.83,7.83,0,0,1,1.94.53l-.62,1.7a8.64,8.64,0,0,0-1.68-.5,12,12,0,0,0-2.5-.24,3.8,3.8,0,0,0-2.46.68,2,2,0,0,0-.82,1.6,2,2,0,0,0,.62,1.49,6.33,6.33,0,0,0,1.55,1.07q.93.47,2,.93a12.69,12.69,0,0,1,2,1.07,5.9,5.9,0,0,1,1.55,1.46,3.48,3.48,0,0,1,.62,2.11,4.24,4.24,0,0,1-.4,1.86,4,4,0,0,1-1.17,1.42,5.57,5.57,0,0,1-1.86.92,8.81,8.81,0,0,1-2.48.32,14.92,14.92,0,0,1-3.08-.26,8.85,8.85,0,0,1-1.89-.59l.7-1.7a8.4,8.4,0,0,0,1.69.57,10.35,10.35,0,0,0,2.51.28,7.57,7.57,0,0,0,1.54-.15,3.67,3.67,0,0,0,1.24-.48,2.6,2.6,0,0,0,.83-.84A2.23,2.23,0,0,0,508.83,187.42Z" transform="translate(-471.53 -43.85)"/><path class="cls-1" d="M524.41,177.14H519v14.37h-2.06V177.14h-5.42v-1.7h12.89Z" transform="translate(-471.53 -43.85)"/><path class="cls-1" d="M524.06,183.47a9.21,9.21,0,0,1,1.84-6.16,6.52,6.52,0,0,1,5.24-2.15,7.77,7.77,0,0,1,3.18.6,5.89,5.89,0,0,1,2.22,1.69,7.12,7.12,0,0,1,1.3,2.62,12.76,12.76,0,0,1,.42,3.41,9.17,9.17,0,0,1-1.85,6.16,6.59,6.59,0,0,1-5.28,2.15,7.63,7.63,0,0,1-3.14-.6,5.91,5.91,0,0,1-2.21-1.69,7.12,7.12,0,0,1-1.3-2.62A12.75,12.75,0,0,1,524.06,183.47Zm2.19,0a10.82,10.82,0,0,0,.29,2.53,6.57,6.57,0,0,0,.88,2.1,4.51,4.51,0,0,0,1.53,1.45,4.31,4.31,0,0,0,2.2.54,4.42,4.42,0,0,0,3.63-1.62,7.84,7.84,0,0,0,1.32-5,10.87,10.87,0,0,0-.29-2.51,6.4,6.4,0,0,0-.89-2.11,4.63,4.63,0,0,0-1.54-1.45,4.81,4.81,0,0,0-5.81,1.08A7.89,7.89,0,0,0,526.25,183.47Z" transform="translate(-471.53 -43.85)"/><path class="cls-1" d="M554.14,180.72l.25-2.41h-.12l-.94,2.2-4.52,7.26h-.62l-4.79-7.28-.89-2.18h-.12l.35,2.39v10.81h-1.94V175.44h1.54l5.44,8.22.82,1.79h0l.77-1.84,5.19-8.17h1.62v16.07h-2.06Z" transform="translate(-471.53 -43.85)"/><path class="cls-1" d="M564.45,175.6q1-.18,2.3-.29t2.5-.1a17.54,17.54,0,0,1,2.6.2,6.81,6.81,0,0,1,2.35.78,4.71,4.71,0,0,1,1.7,1.63,5,5,0,0,1,.66,2.72,5.27,5.27,0,0,1-.57,2.56,5,5,0,0,1-1.51,1.71,6.33,6.33,0,0,1-2.15,1,10.34,10.34,0,0,1-2.5.3h-1l-.58,0-.41,0v5.53h-3.4Zm5.07,2.32q-.5,0-.94,0t-.72.08v5.21l.3,0,.42,0h.75a7.65,7.65,0,0,0,1.33-.12,3.44,3.44,0,0,0,1.18-.42,2.29,2.29,0,0,0,.83-.86,2.93,2.93,0,0,0,.31-1.45,2.39,2.39,0,0,0-.3-1.25,2.33,2.33,0,0,0-.78-.79,3.19,3.19,0,0,0-1.11-.41A6.94,6.94,0,0,0,569.52,177.92Z" transform="translate(-471.53 -43.85)"/><path class="cls-1" d="M584.32,188H579l-1.32,3.56h-3.4l6.26-16.19H583l6.26,16.19h-3.58Zm-4.47-2.53h3.73l-1.29-3.58-.52-2.53h-.12l-.52,2.55Z" transform="translate(-471.53 -43.85)"/><path class="cls-1" d="M590.13,175.44h3.4v16.07h-3.4Z" transform="translate(-471.53 -43.85)"/><path class="cls-1" d="M600.19,183.13l-1.37-2.53h-.12l.4,2.53v8.38h-3.23V175.32h2.48l6.58,8.56,1.32,2.46h.13l-.4-2.46v-8.45h3.23v16.19h-2.48Z" transform="translate(-471.53 -43.85)"/><path class="cls-1" d="M623.54,178.24h-5.07v13.27h-3.4V178.24H610v-2.8h13.56Z" transform="translate(-471.53 -43.85)"/><path class="cls-1" d="M624.66,175.44h3.4v16.07h-3.4Z" transform="translate(-471.53 -43.85)"/><path class="cls-1" d="M634.72,183.13l-1.37-2.53h-.12l.4,2.53v8.38H630.4V175.32h2.48l6.58,8.56,1.32,2.46h.13l-.4-2.46v-8.45h3.23v16.19h-2.48Z" transform="translate(-471.53 -43.85)"/><path class="cls-1" d="M651.86,183.13h6.48v7.16a6.74,6.74,0,0,1-2.5,1.17,11.68,11.68,0,0,1-2.87.37,9.61,9.61,0,0,1-3.09-.48,6.4,6.4,0,0,1-2.47-1.5,7.06,7.06,0,0,1-1.64-2.61,10.69,10.69,0,0,1-.6-3.77,9.51,9.51,0,0,1,.71-3.87,7.07,7.07,0,0,1,4.46-4,9.83,9.83,0,0,1,2.93-.45,14.72,14.72,0,0,1,2.62.21,13,13,0,0,1,1.8.44l-.7,2.64a7.58,7.58,0,0,0-1.39-.36,12.54,12.54,0,0,0-2-.13,6.17,6.17,0,0,0-2,.3,3.82,3.82,0,0,0-1.55,1,4.56,4.56,0,0,0-1,1.73,8,8,0,0,0-.36,2.57,7.93,7.93,0,0,0,.35,2.49,4.71,4.71,0,0,0,1,1.72,3.81,3.81,0,0,0,1.45,1,4.87,4.87,0,0,0,1.78.32,5.39,5.39,0,0,0,1.27-.15,3,3,0,0,0,1-.45v-3l-3.75-.37Z" transform="translate(-471.53 -43.85)"/></svg>