<svg id="og_copy_2" data-name="og copy 2" xmlns="http://www.w3.org/2000/svg" viewBox="0 0 361.24 216.9"><defs><style>.cls-1{fill:#4d4847;}.cls-2{fill:#fff;}.cls-3,.cls-4{fill:#4e4847;}.cls-4{opacity:0.75;}.cls-5{fill:#dc3126;}</style></defs><title>dna-logo</title><path class="cls-1" d="M226.73,201.6l0.48-27.31a9.83,9.83,0,0,0-9.61-10L99.73,162.44a9.83,9.83,0,0,0-10,9.61L89.64,182l-1.24,0-1.11,0-4.79-.09a4.11,4.11,0,0,0-4.59,4.28l-0.07,3.7-0.4,45.39S75.36,246.77,86,247l57.4-3.66s8.89-.15,8.26,6.08l-0.3,15.52-1,0c-2.69-.05-5,4.56-5,7.26L144.25,344c-1.35,0-2.52,3.51-2.54,4.85v0.61a2.46,2.46,0,0,0,2.4,2.5l19.6,0.37a2.46,2.46,0,0,0,2.5-2.4v-0.61c0-1.24-.86-4.34-2.05-4.84l1.06-71.9c0.05-2.69-2.06-7.39-4.76-7.44l-1.74,0,0.3-15.52s1.3-14.56-15.46-13.77l-49.69,3.08s-9.16,1.67-9.06-3.53L85.2,190c0.42-1.19,2-.68,2-0.68l1.11,0,1.24,0-0.22,10.05a9.83,9.83,0,0,0,9.61,10l117.86,1.86A9.83,9.83,0,0,0,226.73,201.6Z" transform="translate(-77.28 -162.44)"/><path class="cls-1" d="M145.84,274.23l18.91-.55,5.56,80.27s0.74,25.39-17,25.39-14.21-25.66-14.21-25.66Z" transform="translate(-77.28 -162.44)"/><path class="cls-2" d="M149.31,365.29h1.92c2.56,0,3.89-3.2,3.94-3.81l-1.52-78.68a1.12,1.12,0,0,0-1-1.2l-1-.09a1.12,1.12,0,0,0-1.2,1l-6.67,78.68C143.7,361.81,143.81,365.29,149.31,365.29Z" transform="translate(-77.28 -162.44)"/><path class="cls-3" d="M206.33,360.29L206.05,364a19.21,19.21,0,0,1-4.48.54q-5.48,0-8.36-3a10.32,10.32,0,0,1-2.87-7.36,11.2,11.2,0,0,1,3-7.82,10.77,10.77,0,0,1,8.36-3.33,14.82,14.82,0,0,1,3.69.45l-0.56,3.69a11.76,11.76,0,0,0-3.61-.61,5.71,5.71,0,0,0-4.83,2.06,7.94,7.94,0,0,0-1.58,5,7.78,7.78,0,0,0,1.88,5.21A6.54,6.54,0,0,0,202,361,15.39,15.39,0,0,0,206.33,360.29Z" transform="translate(-77.28 -162.44)"/><path class="cls-3" d="M225.24,343.26q-0.14,5.37-.14,10.75,0,10.62-8.7,10.62-4.3,0-6.48-2.35t-2.17-8.44q0-5.37-.14-10.57h4.53q-0.21,5.41-.21,10.43,0,4.4,1.12,6a3.9,3.9,0,0,0,3.45,1.63,3.94,3.94,0,0,0,3.53-1.62q1.09-1.62,1.09-6.07,0-4.88-.21-10.4h4.33Z" transform="translate(-77.28 -162.44)"/><path class="cls-3" d="M240.53,358.4q0,6.25-9,6.25a21,21,0,0,1-5.68-.74l0.78-3.57a15,15,0,0,0,4.89.9,9.84,9.84,0,0,0,3.68-.5,1.71,1.71,0,0,0,1.12-1.66,2.52,2.52,0,0,0-1.06-2,17.82,17.82,0,0,0-3.69-1.92,11.53,11.53,0,0,1-3.76-2.37,5.53,5.53,0,0,1-1.55-4,5.1,5.1,0,0,1,2-4.3,9.54,9.54,0,0,1,5.86-1.55,22.25,22.25,0,0,1,5.26.53L238.85,347a13.61,13.61,0,0,0-4.67-.78q-3.78,0-3.77,2a2.1,2.1,0,0,0,.88,1.74,17.63,17.63,0,0,0,3.34,1.62,12.61,12.61,0,0,1,4.09,2.43A5.9,5.9,0,0,1,240.53,358.4Z" transform="translate(-77.28 -162.44)"/><path class="cls-3" d="M258.08,343.26L258,346.69q-3.2-.24-6-0.24,0,3,0,6.73,0,5.76.18,10.89h-4.48q0.21-5.09.21-10.89,0-3.65-.06-6.73-2.25,0-6.19.26l0.13-3.45h16.39Z" transform="translate(-77.28 -162.44)"/><path class="cls-3" d="M277.47,353.28a11.48,11.48,0,0,1-3,8.14,9.76,9.76,0,0,1-7.44,3.23,9.4,9.4,0,0,1-7.07-3,10.45,10.45,0,0,1-2.85-7.54,11.48,11.48,0,0,1,3-8.14,9.76,9.76,0,0,1,7.44-3.23,9.41,9.41,0,0,1,7.07,3A10.44,10.44,0,0,1,277.47,353.28Zm-4.41.46a8.25,8.25,0,0,0-1.71-5.42,5.27,5.27,0,0,0-4.22-2.08,4.88,4.88,0,0,0-4,2.1,8.36,8.36,0,0,0-1.63,5.29,8.24,8.24,0,0,0,1.72,5.41,5.27,5.27,0,0,0,4.21,2.09,4.87,4.87,0,0,0,4-2.1A8.37,8.37,0,0,0,273.06,353.75Z" transform="translate(-77.28 -162.44)"/><path class="cls-3" d="M303.49,364.08h-4.65q0-2.72-.34-9.17t-0.35-8.05h-0.24q-0.16,1-.85,3.55T294.47,358q-1.9,5-1.9,6H289a30.62,30.62,0,0,0-1.82-6.09q-1.81-5.07-2.37-7.1a40,40,0,0,1-.9-4h-0.24q0,2-.39,8.57T283,364.08h-4.22q0-.48,1.16-9.61T281,343.26h6.19q0,1.79,2,7.9t2,7.82h0.24q0-1.73,2.23-7.84t2.23-7.88H302q0,3.31.74,11.81T303.49,364.08Z" transform="translate(-77.28 -162.44)"/><path class="cls-4" d="M324.92,348.71a6.23,6.23,0,0,1-2.84,5.65,12.63,12.63,0,0,1-7,1.82c-0.5,0-.86,0-1.07,0q0,3,.18,7.93h-4.49q0.21-4.62.21-10.89,0-5.76-.21-9.93h2.78l2.27,0q1.68,0,2.91,0a9.15,9.15,0,0,1,5.13,1.38A4.65,4.65,0,0,1,324.92,348.71Zm-4.13.88q0-3.42-4.54-3.42a12.87,12.87,0,0,0-2.4.24q0.18,3,.18,6.84c0.27,0,.58,0,0.93,0Q320.8,353.28,320.8,349.59Z" transform="translate(-77.28 -162.44)"/><path class="cls-4" d="M342.87,364.08h-5.12a33.9,33.9,0,0,0-1.46-6h-7.39a30.93,30.93,0,0,0-1.5,6h-4.81q0-.62,3.73-10.24t3.73-10.59h6q0,0.91,3.38,10.44T342.87,364.08Zm-7.39-9a90.16,90.16,0,0,1-2.73-8.92h-0.26q0,0.62-2.83,8.92h5.82Z" transform="translate(-77.28 -162.44)"/><path class="cls-4" d="M349.32,364.08H344.8q0.21-5,.21-10.89t-0.21-9.93h4.53q-0.21,4-.21,9.93T349.32,364.08Z" transform="translate(-77.28 -162.44)"/><path class="cls-4" d="M369.53,364.08h-4q0-.66-4.4-6.92-4.61-6.61-5.25-9h-0.26a56.48,56.48,0,0,1,.4,6.33q0,3.95.22,9.63h-3.93q0.24-5,.24-10.89t-0.24-9.93h4.75q0,0.85,4,6.76,4.21,6.29,4.83,8.52h0.24a60.38,60.38,0,0,1-.38-6.4q0-4.33-.22-8.89h4q-0.22,4-.22,9.93T369.53,364.08Z" transform="translate(-77.28 -162.44)"/><path class="cls-4" d="M388.16,343.26L388,346.69q-3.2-.24-6-0.24,0,3,0,6.73,0,5.76.18,10.89h-4.48q0.21-5.09.21-10.89,0-3.65-.06-6.73-2.25,0-6.19.26l0.13-3.45h16.39Z" transform="translate(-77.28 -162.44)"/><path class="cls-4" d="M404,360.56l-0.13,3.52H390.26q0.21-4.83.21-10.89,0-5.82-.21-9.93h13l-0.18,3.5q-4.8-.25-8.7-0.26,0.16,2.22.16,5.25,3.34,0,7.15-.18v3.34q-3.74-.16-7.15-0.16,0,3.25.13,6.08Q399,360.83,404,360.56Z" transform="translate(-77.28 -162.44)"/><path class="cls-4" d="M422.83,364.08H418.1q-1.86-5.66-2.85-7a3.73,3.73,0,0,0-3.2-1.33l-1.78,0q0,4.11.14,8.3H406q0.21-4.83.21-10.89,0-5.82-.21-9.93h2.77l2,0q1.53,0,2.82,0,7.34,0,7.34,5,0,4-4.19,5.55V354a5,5,0,0,1,2.83,2.52A55.64,55.64,0,0,1,422.83,364.08Zm-6-14.71q0-3.18-4.09-3.18a14,14,0,0,0-2.65.22q0.18,2.48.18,6.46l1.49,0Q416.83,352.9,416.83,349.36Z" transform="translate(-77.28 -162.44)"/><path class="cls-4" d="M438.52,358.4q0,6.25-9,6.25a21,21,0,0,1-5.68-.74l0.78-3.57a15,15,0,0,0,4.89.9,9.84,9.84,0,0,0,3.68-.5,1.71,1.71,0,0,0,1.12-1.66,2.52,2.52,0,0,0-1.06-2,17.82,17.82,0,0,0-3.69-1.92,11.53,11.53,0,0,1-3.76-2.37,5.53,5.53,0,0,1-1.55-4,5.1,5.1,0,0,1,2-4.3,9.54,9.54,0,0,1,5.86-1.55,22.25,22.25,0,0,1,5.26.53L436.84,347a13.61,13.61,0,0,0-4.67-.78q-3.78,0-3.77,2a2.1,2.1,0,0,0,.88,1.74,17.63,17.63,0,0,0,3.34,1.62,12.61,12.61,0,0,1,4.09,2.43A5.9,5.9,0,0,1,438.52,358.4Z" transform="translate(-77.28 -162.44)"/><rect class="cls-1" x="146.1" y="15.8" width="9.4" height="19.96" rx="0.56" ry="0.56"/><path class="cls-2" d="M227,194h1.75a0.71,0.71,0,0,0,.7-0.71v-9.7a0.71,0.71,0,0,0-.7-0.71H227V194Z" transform="translate(-77.28 -162.44)"/><path class="cls-5" d="M270.38,271.89a49.6,49.6,0,0,1-12.24,33.34q-12.24,14.25-34.29,14.25-10,0-27.43-.81,0.87-20.3.87-45.78,0-24.47-.87-41.75H208.2q2.89,0,8.61-.2t7.46-.2q24.27,0,35.2,12.1A41.85,41.85,0,0,1,270.38,271.89ZM252,274.78q0-12.91-7.53-21.75t-23-8.84a70.6,70.6,0,0,0-7.93.61q0.67,13.45.67,28.1,0,16.07.67,31.87a44.52,44.52,0,0,0,8.74.87q14.45,0,21.41-9T252,274.78Z" transform="translate(-77.28 -162.44)"/><path class="cls-5" d="M346.36,318.68H329.76q0-2.76-18.49-29.11-19.36-27.76-22.05-38h-1.08a237,237,0,0,1,1.68,26.62q0,16.61.94,40.47H274.23q1-20.84,1-45.78,0-24.54-1-41.75h20q0,3.56,16.6,28.44,17.68,26.42,20.3,35.83h1a253.9,253.9,0,0,1-1.61-26.89q0-18.22-.94-37.38h16.81q-0.94,16.67-.94,41.75Q345.42,298.17,346.36,318.68Z" transform="translate(-77.28 -162.44)"/><path class="cls-5" d="M431,318.68H409.5q0-4.44-6.12-25.14H372.33Q366,313.91,366,318.68H345.77q0-2.62,15.7-43t15.7-44.51h25.41q0,3.83,14.22,43.87T431,318.68ZM400,280.7q-11.5-34.69-11.5-37.51h-1.08q0,2.62-11.9,37.51H400Z" transform="translate(-77.28 -162.44)"/><path class="cls-5" d="M352.95,333.3c0.7,4.06-3.68,7.32-7.11,7.09s-6-3.73-5.69-7.81,3.28-7.19,6.7-7a3.64,3.64,0,0,1,2.37.75C352,329.11,352.42,330.28,352.95,333.3Z" transform="translate(-77.28 -162.44)"/><path class="cls-5" d="M344.75,311a44.88,44.88,0,0,0,6.55,17.86l-10.74,1.84s4.3-13.17-.39-18.93Z" transform="translate(-77.28 -162.44)"/><path class="cls-1" d="M89.5,189.32l-0.22,10.05a9.83,9.83,0,0,0,9.61,10l117.86,1.86a9.83,9.83,0,0,0,10-9.61l0.48-27.31a9.83,9.83,0,0,0-9.61-10L99.73,162.44a9.83,9.83,0,0,0-10,9.61L89.64,182" transform="translate(-77.28 -162.44)"/><rect class="cls-2" x="96.34" y="169.42" width="125.21" height="18.55" rx="1" ry="1" transform="matrix(1, 0.02, -0.02, 1, -73.16, -166.03)"/><rect class="cls-2" x="96.09" y="174.55" width="3.24" height="28.4" rx="0.27" ry="0.27" transform="translate(-72.33 -164.92) rotate(1.49)"/><rect class="cls-2" x="218.23" y="176.59" width="3.24" height="28.4" rx="0.27" ry="0.27" transform="translate(362.43 219.14) rotate(-180)"/></svg>