<svg id="DNA_strand_1_copy" data-name="DNA strand (1) copy" xmlns="http://www.w3.org/2000/svg" viewBox="0 0 154.24 109.53"><defs><style>.cls-1{fill:#f15d22;}.cls-2{fill:#db3d26;}.cls-3{fill:#a43923;}.cls-4{fill:#418ccb;}.cls-5{fill:#1d5275;}.cls-6{fill:#00a6d1;}</style></defs><title>dna-hydra-logo</title><path class="cls-1" d="M271.68,360.32l0.43-.45,0.06,0,9.67-9.84a10.46,10.46,0,0,0,1.82-5.33,10.57,10.57,0,0,0-3.23-7.37,8.68,8.68,0,0,0-6.89-2.63,10.46,10.46,0,0,0-5.32,1.84l-10.3,10.06-0.61.61,0.61,0.49A128.36,128.36,0,0,1,271.68,360.32Z" transform="translate(-129.44 -276.44)"/><path class="cls-1" d="M244.27,360.32L232.5,372.09l-0.24.22,0.24,0.24s4.85,6,15.62,5.69l0.46-.17a33.57,33.57,0,0,0,8.75-4.61l-12.59-12.67Z" transform="translate(-129.44 -276.44)"/><path class="cls-1" d="M141.43,360.32l-0.43.45-0.06,0-9.67,9.84a10.46,10.46,0,0,0-1.82,5.33,10.57,10.57,0,0,0,3.23,7.37,8.68,8.68,0,0,0,6.89,2.63,10.46,10.46,0,0,0,5.32-1.84l10.3-10.06,0.61-.61-0.61-.49A128.36,128.36,0,0,1,141.43,360.32Z" transform="translate(-129.44 -276.44)"/><path class="cls-1" d="M168.84,360.32l11.77-11.77,0.39-.35,0,0s-7.77-6.77-16.12-5.6c0,0,.61-0.3,1.71-0.71-0.67.22-1.34,0.46-2,.73a33.57,33.57,0,0,0-8.75,4.61l12.59,12.67Z" transform="translate(-129.44 -276.44)"/><path class="cls-2" d="M232.26,372.31l-12.28-12c-9.11,9.82-13.14,12.37-13.14,12.37l-0.28.19a76.43,76.43,0,0,0,9.57,5.33l0.13,0.05h0C224.11,379.29,230.92,373.53,232.26,372.31Z" transform="translate(-129.44 -276.44)"/><path class="cls-2" d="M181,348.19l11.91,11.91,0.23,0.24,0.09-.09c7.91-9,12-11.84,13.33-12.65a4.76,4.76,0,0,0-.53-0.29,40.06,40.06,0,0,0-9.19-4.9l-0.21-.09C189.12,341.49,182.61,346.76,181,348.19Z" transform="translate(-129.44 -276.44)"/><path class="cls-3" d="M232.5,372.55l-0.24-.24c-1.34,1.21-8.15,7-16,6h0a44.62,44.62,0,0,0,9.4,2.57,45.62,45.62,0,0,0,22.46-2.62C237.35,378.55,232.5,372.55,232.5,372.55Z" transform="translate(-129.44 -276.44)"/><path class="cls-3" d="M181,348.16l0,0c1.61-1.43,8.12-6.7,15.63-5.86q-1.47-.66-2.93-1.17a44.16,44.16,0,0,0-27.15.68c-1.1.42-1.71,0.71-1.71,0.71C173.19,341.39,181,348.16,181,348.16Z" transform="translate(-129.44 -276.44)"/><path class="cls-4" d="M155.18,347.67l0.61-.49-0.61-.61-10.3-10.06a10.46,10.46,0,0,0-5.32-1.84,8.68,8.68,0,0,0-6.89,2.63,10.57,10.57,0,0,0-3.23,7.37,10.46,10.46,0,0,0,1.82,5.33l9.67,9.84,0.06,0,0.43,0.45A128.36,128.36,0,0,1,155.18,347.67Z" transform="translate(-129.44 -276.44)"/><path class="cls-4" d="M180.61,372.55l0.24-.24-0.24-.22-11.77-11.77-0.47.47-12.59,12.67a33.57,33.57,0,0,0,8.75,4.61l0.46,0.17C175.76,378.55,180.61,372.55,180.61,372.55Z" transform="translate(-129.44 -276.44)"/><path class="cls-5" d="M168.84,360.32l-0.47-.47-12.59-12.67-0.61.49a128.36,128.36,0,0,0-13.75,12.65A128.36,128.36,0,0,0,155.18,373l0.61,0.49,12.59-12.67Z" transform="translate(-129.44 -276.44)"/><path class="cls-4" d="M232.15,348.16l0,0,0.39,0.35,11.77,11.77,0.47-.47,12.59-12.67a33.57,33.57,0,0,0-8.75-4.61c-0.68-.26-1.35-0.5-2-0.73,1.1,0.42,1.71.71,1.71,0.71C239.92,341.39,232.15,348.16,232.15,348.16Z" transform="translate(-129.44 -276.44)"/><path class="cls-4" d="M281.85,370.64l-9.67-9.84-0.06,0-0.43-.45A128.36,128.36,0,0,1,257.93,373l-0.61.49,0.61,0.61,10.3,10.06a10.46,10.46,0,0,0,5.32,1.84,8.68,8.68,0,0,0,6.89-2.63,10.57,10.57,0,0,0,3.23-7.37A10.46,10.46,0,0,0,281.85,370.64Z" transform="translate(-129.44 -276.44)"/><path class="cls-5" d="M271.68,360.32a128.36,128.36,0,0,0-13.75-12.65l-0.61-.49-12.59,12.67-0.47.47,0.47,0.47,12.59,12.67,0.61-.49A128.36,128.36,0,0,0,271.68,360.32Z" transform="translate(-129.44 -276.44)"/><path class="cls-6" d="M219.89,360.26l0.09,0.09,0.23-.24,11.91-11.91c-1.61-1.43-8.12-6.7-15.63-5.86l-0.21.09a40.06,40.06,0,0,0-9.19,4.9,4.76,4.76,0,0,0-.53.29C207.91,348.42,212,351.28,219.89,360.26Z" transform="translate(-129.44 -276.44)"/><path class="cls-6" d="M193.13,360.35l-12.28,12c1.34,1.21,8.15,7,16,6h0l0.13-.05a76.43,76.43,0,0,0,9.57-5.33l-0.28-.19S202.24,370.16,193.13,360.35Z" transform="translate(-129.44 -276.44)"/><path class="cls-5" d="M220,360.35l-0.09-.09c-7.91-9-12-11.84-13.33-12.65-1.36.81-5.42,3.67-13.33,12.65l-0.09.09c9.11,9.82,13.14,12.37,13.14,12.37l0.28,0.19,0.28-.19S210.87,370.16,220,360.35Z" transform="translate(-129.44 -276.44)"/><path class="cls-5" d="M180.85,372.31l-0.24.24s-4.85,6-15.62,5.69a45.62,45.62,0,0,0,22.46,2.62,44.62,44.62,0,0,0,9.4-2.57h0C189,379.29,182.19,373.53,180.85,372.31Z" transform="translate(-129.44 -276.44)"/><path class="cls-5" d="M232.11,348.19l0,0s7.77-6.77,16.12-5.6c0,0-.61-0.3-1.71-0.71a44.16,44.16,0,0,0-27.15-.68q-1.46.51-2.93,1.17C224,341.49,230.5,346.76,232.11,348.19Z" transform="translate(-129.44 -276.44)"/><path class="cls-2" d="M177.44,303.6c0,13.34-5.75,23.24-16.21,26a47,47,0,0,1-11.5,1.12H131.44V282.27c0-3.75,1.84-5.75,5.59-5.83h15.66C169.93,276.44,177.44,286.27,177.44,303.6Zm-24.76-17.65h-10.3v35h8.87c11,0,14.86-5.91,14.86-17.33C166.1,292.74,162.75,285.95,152.68,285.95Z" transform="translate(-129.44 -276.44)"/><path class="cls-2" d="M185.79,276.44h6l22.12,37.3v-37.3h10.94v54.31H213.27l-22.13-37.3v37.3H180.2V282.27A5.76,5.76,0,0,1,185.79,276.44Z" transform="translate(-129.44 -276.44)"/><path class="cls-2" d="M261.19,276.44l19.49,54.31H268.94l-3.59-11.1h-21l-3.59,11.1h-11.9L247,280q1.2-3.59,5.27-3.59h8.95Zm-13.9,34h14.94l-7.51-23.08Z" transform="translate(-129.44 -276.44)"/></svg>